ffmpeg started on 2025-07-16 at 17:51:56
Report written to "D:\Convert\FFMetrics\reports\psnr_report-6.txt"
Log level: 32
Command line:
ffmpeg -hide_banner -nostdin -i "G:\\\xc0\xed\xe8\xec\xe5\\Shiza\\\xcb\xe5\xe3\xe5\xed\xe4\xe0 \xee \xc3\xf0\xe0\xed\xea\xf0\xe5\xf1\xf2\xe5\\[SHIZA Project] Grancrest Senki TV [24] [nDrOiDze & Lizaveta]_HEVC.mkv" -i "G:\\\xc0\xed\xe8\xec\xe5\\Shiza\\\xcb\xe5\xe3\xe5\xed\xe4\xe0 \xee \xc3\xf0\xe0\xed\xea\xf0\xe5\xf1\xf2\xe5\\[SHIZA Project] Grancrest Senki TV [24] [nDrOiDze & Lizaveta].mkv" -lavfi "[0:v]settb=AVTB,setpts=PTS-STARTPTS,format=pix_fmts=yuv420p10,fps=24000/1001,scale=1280:720:flags=bicubic[main];[1:v]settb=AVTB,setpts=PTS-STARTPTS,format=pix_fmts=yuv420p,fps=24000/1001,scale=1280:720:flags=bicubic[ref];[main][ref]psnr=eof_action=endall:stats_file='D\\:/Convert/FFMetrics/logs/psnr_logfile-6.txt'" -f null -
Input #0, matroska,webm, from 'G:\Аниме\Shiza\Легенда о Гранкресте\[SHIZA Project] Grancrest Senki TV [24] [nDrOiDze & Lizaveta]_HEVC.mkv':
  Metadata:
    ENCODER         : Lavf61.7.100
  Duration: 00:23:41.18, start: -0.021000, bitrate: 911 kb/s
  Stream #0:0(jpn): Video: hevc (Main 10), yuv420p10le(tv, bt709, progressive), 1280x720 [SAR 1:1 DAR 16:9], 23.98 fps, 23.98 tbr, 1k tbn (default)
      Metadata:
        title           : [SHIZA Project] Grancrest Senki TV [WEBRip]
        ENCODER         : Lavc61.19.100 libx265
        BPS             : 712939
        DURATION        : 00:23:40.043708333
        NUMBER_OF_FRAMES: 34047
        NUMBER_OF_BYTES : 126550600
        _STATISTICS_WRITING_APP: mkvpropedit v66.0.0 ('Josie') 64-bit
        _STATISTICS_WRITING_DATE_UTC: 2025-07-16 12:01:37
        _STATISTICS_TAGS: BPS DURATION NUMBER_OF_FRAMES NUMBER_OF_BYTES
  Stream #0:1(rus): Audio: aac (LC), 48000 Hz, stereo, fltp (default)
      Metadata:
        title           : nDrOiDze & Lizaveta
        ENCODER         : Lavc61.19.100 aac
        BPS             : 195223
        DURATION        : 00:23:41.162000000
        NUMBER_OF_FRAMES: 66618
        NUMBER_OF_BYTES : 34680500
        _STATISTICS_WRITING_APP: mkvpropedit v66.0.0 ('Josie') 64-bit
        _STATISTICS_WRITING_DATE_UTC: 2025-07-16 12:01:37
        _STATISTICS_TAGS: BPS DURATION NUMBER_OF_FRAMES NUMBER_OF_BYTES
Input #1, matroska,webm, from 'G:\Аниме\Shiza\Легенда о Гранкресте\[SHIZA Project] Grancrest Senki TV [24] [nDrOiDze & Lizaveta].mkv':
  Metadata:
    encoder         : libebml v1.3.4 + libmatroska v1.4.5
    creation_time   : 2018-07-02T08:40:39.000000Z
  Duration: 00:23:41.16, start: 0.000000, bitrate: 2773 kb/s
  Stream #1:0(jpn): Video: h264 (High), yuv420p(progressive), 1280x720 [SAR 1:1 DAR 16:9], 23.98 fps, 23.98 tbr, 1k tbn (default)
      Metadata:
        title           : [SHIZA Project] Grancrest Senki TV [WEBRip]
        BPS             : 2577135
        BPS-eng         : 2577135
        DURATION        : 00:23:40.045000000
        DURATION-eng    : 00:23:40.045000000
        NUMBER_OF_FRAMES: 34047
        NUMBER_OF_FRAMES-eng: 34047
        NUMBER_OF_BYTES : 457456016
        NUMBER_OF_BYTES-eng: 457456016
        _STATISTICS_WRITING_APP: mkvmerge v10.0.0 ('To Drown In You') 64bit
        _STATISTICS_WRITING_APP-eng: mkvmerge v10.0.0 ('To Drown In You') 64bit
        _STATISTICS_WRITING_DATE_UTC: 2018-07-02 08:40:39
        _STATISTICS_WRITING_DATE_UTC-eng: 2018-07-02 08:40:39
        _STATISTICS_TAGS: BPS DURATION NUMBER_OF_FRAMES NUMBER_OF_BYTES
        _STATISTICS_TAGS-eng: BPS DURATION NUMBER_OF_FRAMES NUMBER_OF_BYTES
  Stream #1:1(rus): Audio: aac (LC), 48000 Hz, stereo, fltp (default)
      Metadata:
        title           : nDrOiDze & Lizaveta
        BPS             : 195207
        BPS-eng         : 195207
        DURATION        : 00:23:41.162000000
        DURATION-eng    : 00:23:41.162000000
        NUMBER_OF_FRAMES: 66617
        NUMBER_OF_FRAMES-eng: 66617
        NUMBER_OF_BYTES : 34677620
        NUMBER_OF_BYTES-eng: 34677620
        _STATISTICS_WRITING_APP: mkvmerge v10.0.0 ('To Drown In You') 64bit
        _STATISTICS_WRITING_APP-eng: mkvmerge v10.0.0 ('To Drown In You') 64bit
        _STATISTICS_WRITING_DATE_UTC: 2018-07-02 08:40:39
        _STATISTICS_WRITING_DATE_UTC-eng: 2018-07-02 08:40:39
        _STATISTICS_TAGS: BPS DURATION NUMBER_OF_FRAMES NUMBER_OF_BYTES
        _STATISTICS_TAGS-eng: BPS DURATION NUMBER_OF_FRAMES NUMBER_OF_BYTES
  Stream #1:2: Attachment: ttf
      Metadata:
        filename        : OpenSans-Semibold.ttf
        mimetype        : application/x-truetype-font
Stream mapping:
  Stream #0:0 (hevc) -> settb:default
  Stream #1:0 (h264) -> settb:default
  psnr:default -> Stream #0:0 (wrapped_avframe)
  Stream #0:1 -> #0:1 (aac (native) -> pcm_s16le (native))
[swscaler @ 00000214baefa440] No accelerated colorspace conversion found from yuv420p to bgr48le.
[swscaler @ 00000214bb0f4ec0] No accelerated colorspace conversion found from yuv420p to bgr48le.
[swscaler @ 00000214bb1dbe80] No accelerated colorspace conversion found from yuv420p to bgr48le.
[swscaler @ 00000214bb3228c0] No accelerated colorspace conversion found from yuv420p to bgr48le.
[swscaler @ 00000214bb43f580] No accelerated colorspace conversion found from yuv420p to bgr48le.
[swscaler @ 00000214bb501540] No accelerated colorspace conversion found from yuv420p to bgr48le.
[swscaler @ 00000214bb55d040] No accelerated colorspace conversion found from yuv420p to bgr48le.
[swscaler @ 00000214bb5ca040] No accelerated colorspace conversion found from yuv420p to bgr48le.
[swscaler @ 00000214bb62e040] No accelerated colorspace conversion found from yuv420p to bgr48le.
[swscaler @ 00000214bb6bc040] No accelerated colorspace conversion found from yuv420p to bgr48le.
[swscaler @ 00000214bb721040] No accelerated colorspace conversion found from yuv420p to bgr48le.
[swscaler @ 00000214bb786040] No accelerated colorspace conversion found from yuv420p to bgr48le.
[swscaler @ 00000214bb7ea040] No accelerated colorspace conversion found from yuv420p to bgr48le.
[swscaler @ 00000214bb86d040] No accelerated colorspace conversion found from yuv420p to bgr48le.
[swscaler @ 00000214bb8d2040] No accelerated colorspace conversion found from yuv420p to bgr48le.
[swscaler @ 00000214bb910040] No accelerated colorspace conversion found from yuv420p to bgr48le.
Output #0, null, to 'pipe:':
  Metadata:
    encoder         : Lavf61.7.100
  Stream #0:0: Video: wrapped_avframe, yuv420p10le(tv, bt709, progressive), 1280x720 [SAR 1:1 DAR 16:9], q=2-31, 200 kb/s, 23.98 fps, 23.98 tbn
      Metadata:
        encoder         : Lavc61.19.100 wrapped_avframe
  Stream #0:1(rus): Audio: pcm_s16le, 48000 Hz, stereo, s16, 1536 kb/s (default)
      Metadata:
        title           : nDrOiDze & Lizaveta
        _STATISTICS_TAGS: BPS DURATION NUMBER_OF_FRAMES NUMBER_OF_BYTES
        BPS             : 195223
        DURATION        : 00:23:41.162000000
        NUMBER_OF_FRAMES: 66618
        NUMBER_OF_BYTES : 34680500
        _STATISTICS_WRITING_APP: mkvpropedit v66.0.0 ('Josie') 64-bit
        _STATISTICS_WRITING_DATE_UTC: 2025-07-16 12:01:37
        encoder         : Lavc61.19.100 pcm_s16le
frame=   79 fps=0.0 q=-0.0 size=N/A time=00:00:03.29 bitrate=N/A speed= 6.5x    frame=  174 fps=169 q=-0.0 size=N/A time=00:00:07.25 bitrate=N/A speed=7.03x    frame=  268 fps=174 q=-0.0 size=N/A time=00:00:11.17 bitrate=N/A speed=7.25x    frame=  363 fps=177 q=-0.0 size=N/A time=00:00:15.14 bitrate=N/A speed=7.38x    frame=  458 fps=178 q=-0.0 size=N/A time=00:00:19.10 bitrate=N/A speed=7.42x    frame=  555 fps=180 q=-0.0 size=N/A time=00:00:23.14 bitrate=N/A speed=7.52x    frame=  646 fps=179 q=-0.0 size=N/A time=00:00:26.94 bitrate=N/A speed=7.47x    frame=  742 fps=180 q=-0.0 size=N/A time=00:00:30.94 bitrate=N/A speed=7.53x    frame=  835 fps=180 q=-0.0 size=N/A time=00:00:34.82 bitrate=N/A speed=7.52x    frame=  933 fps=181 q=-0.0 size=N/A time=00:00:38.91 bitrate=N/A speed=7.55x    frame= 1024 fps=181 q=-0.0 size=N/A time=00:00:42.70 bitrate=N/A speed=7.54x    frame= 1122 fps=181 q=-0.0 size=N/A time=00:00:46.79 bitrate=N/A speed=7.56x    frame= 1214 fps=181 q=-0.0 size=N/A time=00:00:50.63 bitrate=N/A speed=7.56x    frame= 1309 fps=181 q=-0.0 size=N/A time=00:00:54.59 bitrate=N/A speed=7.56x    frame= 1402 fps=182 q=-0.0 size=N/A time=00:00:58.47 bitrate=N/A speed=7.57x    frame= 1500 fps=182 q=-0.0 size=N/A time=00:01:02.56 bitrate=N/A speed=7.58x    frame= 1590 fps=182 q=-0.0 size=N/A time=00:01:06.31 bitrate=N/A speed=7.58x    frame= 1692 fps=182 q=-0.0 size=N/A time=00:01:10.57 bitrate=N/A speed=7.61x    frame= 1779 fps=182 q=-0.0 size=N/A time=00:01:14.19 bitrate=N/A speed=7.58x    frame= 1882 fps=183 q=-0.0 size=N/A time=00:01:18.49 bitrate=N/A speed=7.61x    frame= 1975 fps=183 q=-0.0 size=N/A time=00:01:22.37 bitrate=N/A speed=7.62x    frame= 2072 fps=183 q=-0.0 size=N/A time=00:01:26.41 bitrate=N/A speed=7.62x    frame= 2169 fps=183 q=-0.0 size=N/A time=00:01:30.46 bitrate=N/A speed=7.64x    frame= 2263 fps=183 q=-0.0 size=N/A time=00:01:34.38 bitrate=N/A speed=7.63x    frame= 2357 fps=183 q=-0.0 size=N/A time=00:01:38.30 bitrate=N/A speed=7.63x    frame= 2454 fps=183 q=-0.0 size=N/A time=00:01:42.35 bitrate=N/A speed=7.64x    frame= 2544 fps=183 q=-0.0 size=N/A time=00:01:46.10 bitrate=N/A speed=7.62x    frame= 2645 fps=183 q=-0.0 size=N/A time=00:01:50.31 bitrate=N/A speed=7.65x    frame= 2737 fps=183 q=-0.0 size=N/A time=00:01:54.15 bitrate=N/A speed=7.64x    frame= 2837 fps=184 q=-0.0 size=N/A time=00:01:58.32 bitrate=N/A speed=7.65x    frame= 2926 fps=183 q=-0.0 size=N/A time=00:02:02.03 bitrate=N/A speed=7.64x    frame= 3023 fps=183 q=-0.0 size=N/A time=00:02:06.08 bitrate=N/A speed=7.64x    frame= 3119 fps=183 q=-0.0 size=N/A time=00:02:10.08 bitrate=N/A speed=7.65x    frame= 3212 fps=183 q=-0.0 size=N/A time=00:02:13.96 bitrate=N/A speed=7.64x    frame= 3304 fps=183 q=-0.0 size=N/A time=00:02:17.80 bitrate=N/A speed=7.64x    frame= 3397 fps=183 q=-0.0 size=N/A time=00:02:21.68 bitrate=N/A speed=7.64x    frame= 3492 fps=183 q=-0.0 size=N/A time=00:02:25.64 bitrate=N/A speed=7.64x    frame= 3587 fps=183 q=-0.0 size=N/A time=00:02:29.60 bitrate=N/A speed=7.63x    frame= 3688 fps=183 q=-0.0 size=N/A time=00:02:33.82 bitrate=N/A speed=7.65x    frame= 3789 fps=184 q=-0.0 size=N/A time=00:02:38.03 bitrate=N/A speed=7.66x    frame= 3887 fps=184 q=-0.0 size=N/A time=00:02:42.12 bitrate=N/A speed=7.67x    frame= 3983 fps=184 q=-0.0 size=N/A time=00:02:46.12 bitrate=N/A speed=7.66x    frame= 4075 fps=184 q=-0.0 size=N/A time=00:02:49.96 bitrate=N/A speed=7.66x    frame= 4176 fps=184 q=-0.0 size=N/A time=00:02:54.17 bitrate=N/A speed=7.67x    frame= 4275 fps=184 q=-0.0 size=N/A time=00:02:58.30 bitrate=N/A speed=7.68x    frame= 4371 fps=184 q=-0.0 size=N/A time=00:03:02.30 bitrate=N/A speed=7.68x    frame= 4473 fps=184 q=-0.0 size=N/A time=00:03:06.56 bitrate=N/A speed=7.69x    frame= 4571 fps=184 q=-0.0 size=N/A time=00:03:10.64 bitrate=N/A speed=7.69x    frame= 4668 fps=185 q=-0.0 size=N/A time=00:03:14.69 bitrate=N/A speed= 7.7x    frame= 4764 fps=185 q=-0.0 size=N/A time=00:03:18.69 bitrate=N/A speed= 7.7x    frame= 4861 fps=185 q=-0.0 size=N/A time=00:03:22.74 bitrate=N/A speed= 7.7x    frame= 4957 fps=185 q=-0.0 size=N/A time=00:03:26.74 bitrate=N/A speed= 7.7x    frame= 5053 fps=185 q=-0.0 size=N/A time=00:03:30.75 bitrate=N/A speed=7.71x    frame= 5148 fps=185 q=-0.0 size=N/A time=00:03:34.71 bitrate=N/A speed= 7.7x    frame= 5245 fps=185 q=-0.0 size=N/A time=00:03:38.76 bitrate=N/A speed=7.71x    frame= 5341 fps=185 q=-0.0 size=N/A time=00:03:42.76 bitrate=N/A speed=7.71x    frame= 5430 fps=185 q=-0.0 size=N/A time=00:03:46.47 bitrate=N/A speed= 7.7x    frame= 5515 fps=184 q=-0.0 size=N/A time=00:03:50.02 bitrate=N/A speed=7.68x    frame= 5607 fps=184 q=-0.0 size=N/A time=00:03:53.85 bitrate=N/A speed=7.68x    frame= 5713 fps=184 q=-0.0 size=N/A time=00:03:58.27 bitrate=N/A speed= 7.7x    frame= 5806 fps=184 q=-0.0 size=N/A time=00:04:02.15 bitrate=N/A speed=7.69x    frame= 5912 fps=185 q=-0.0 size=N/A time=00:04:06.57 bitrate=N/A speed=7.71x    frame= 6006 fps=185 q=-0.0 size=N/A time=00:04:10.50 bitrate=N/A speed=7.71x    frame= 6101 fps=185 q=-0.0 size=N/A time=00:04:14.46 bitrate=N/A speed= 7.7x    frame= 6191 fps=185 q=-0.0 size=N/A time=00:04:18.21 bitrate=N/A speed= 7.7x    frame= 6277 fps=184 q=-0.0 size=N/A time=00:04:21.80 bitrate=N/A speed=7.69x    frame= 6375 fps=184 q=-0.0 size=N/A time=00:04:25.89 bitrate=N/A speed=7.69x    frame= 6469 fps=184 q=-0.0 size=N/A time=00:04:29.81 bitrate=N/A speed=7.69x    frame= 6560 fps=184 q=-0.0 size=N/A time=00:04:33.60 bitrate=N/A speed=7.69x    frame= 6655 fps=184 q=-0.0 size=N/A time=00:04:37.56 bitrate=N/A speed=7.68x    frame= 6748 fps=184 q=-0.0 size=N/A time=00:04:41.44 bitrate=N/A speed=7.68x    frame= 6843 fps=184 q=-0.0 size=N/A time=00:04:45.41 bitrate=N/A speed=7.68x    frame= 6938 fps=184 q=-0.0 size=N/A time=00:04:49.37 bitrate=N/A speed=7.68x    frame= 7032 fps=184 q=-0.0 size=N/A time=00:04:53.29 bitrate=N/A speed=7.68x    frame= 7127 fps=184 q=-0.0 size=N/A time=00:04:57.25 bitrate=N/A speed=7.68x    frame= 7222 fps=184 q=-0.0 size=N/A time=00:05:01.21 bitrate=N/A speed=7.68x    frame= 7318 fps=184 q=-0.0 size=N/A time=00:05:05.22 bitrate=N/A speed=7.68x    frame= 7415 fps=184 q=-0.0 size=N/A time=00:05:09.26 bitrate=N/A speed=7.68x    frame= 7511 fps=184 q=-0.0 size=N/A time=00:05:13.27 bitrate=N/A speed=7.68x    frame= 7606 fps=184 q=-0.0 size=N/A time=00:05:17.23 bitrate=N/A speed=7.68x    frame= 7700 fps=184 q=-0.0 size=N/A time=00:05:21.15 bitrate=N/A speed=7.68x    frame= 7795 fps=184 q=-0.0 size=N/A time=00:05:25.11 bitrate=N/A speed=7.68x    frame= 7886 fps=184 q=-0.0 size=N/A time=00:05:28.91 bitrate=N/A speed=7.68x    frame= 7984 fps=184 q=-0.0 size=N/A time=00:05:32.99 bitrate=N/A speed=7.68x    frame= 8075 fps=184 q=-0.0 size=N/A time=00:05:36.79 bitrate=N/A speed=7.68x    frame= 8170 fps=184 q=-0.0 size=N/A time=00:05:40.75 bitrate=N/A speed=7.68x    frame= 8267 fps=184 q=-0.0 size=N/A time=00:05:44.80 bitrate=N/A speed=7.68x    frame= 8354 fps=184 q=-0.0 size=N/A time=00:05:48.43 bitrate=N/A speed=7.67x    frame= 8454 fps=184 q=-0.0 size=N/A time=00:05:52.60 bitrate=N/A speed=7.68x    frame= 8551 fps=184 q=-0.0 size=N/A time=00:05:56.64 bitrate=N/A speed=7.68x    frame= 8644 fps=184 q=-0.0 size=N/A time=00:06:00.52 bitrate=N/A speed=7.68x    frame= 8743 fps=184 q=-0.0 size=N/A time=00:06:04.65 bitrate=N/A speed=7.68x    frame= 8838 fps=184 q=-0.0 size=N/A time=00:06:08.61 bitrate=N/A speed=7.68x    frame= 8929 fps=184 q=-0.0 size=N/A time=00:06:12.41 bitrate=N/A speed=7.67x    frame= 9030 fps=184 q=-0.0 size=N/A time=00:06:16.62 bitrate=N/A speed=7.68x    frame= 9127 fps=184 q=-0.0 size=N/A time=00:06:20.67 bitrate=N/A speed=7.68x    frame= 9223 fps=184 q=-0.0 size=N/A time=00:06:24.67 bitrate=N/A speed=7.68x    frame= 9318 fps=184 q=-0.0 size=N/A time=00:06:28.63 bitrate=N/A speed=7.68x    frame= 9411 fps=184 q=-0.0 size=N/A time=00:06:32.51 bitrate=N/A speed=7.68x    frame= 9501 fps=184 q=-0.0 size=N/A time=00:06:36.27 bitrate=N/A speed=7.68x    frame= 9593 fps=184 q=-0.0 size=N/A time=00:06:40.10 bitrate=N/A speed=7.68x    frame= 9687 fps=184 q=-0.0 size=N/A time=00:06:44.02 bitrate=N/A speed=7.67x    frame= 9780 fps=184 q=-0.0 size=N/A time=00:06:47.90 bitrate=N/A speed=7.67x    frame= 9877 fps=184 q=-0.0 size=N/A time=00:06:51.95 bitrate=N/A speed=7.67x    frame= 9969 fps=184 q=-0.0 size=N/A time=00:06:55.79 bitrate=N/A speed=7.67x    frame=10062 fps=184 q=-0.0 size=N/A time=00:06:59.66 bitrate=N/A speed=7.67x    frame=10153 fps=184 q=-0.0 size=N/A time=00:07:03.46 bitrate=N/A speed=7.67x    frame=10250 fps=184 q=-0.0 size=N/A time=00:07:07.51 bitrate=N/A speed=7.67x    frame=10335 fps=184 q=-0.0 size=N/A time=00:07:11.05 bitrate=N/A speed=7.66x    frame=10439 fps=184 q=-0.0 size=N/A time=00:07:15.39 bitrate=N/A speed=7.67x    frame=10533 fps=184 q=-0.0 size=N/A time=00:07:19.31 bitrate=N/A speed=7.67x    frame=10628 fps=184 q=-0.0 size=N/A time=00:07:23.27 bitrate=N/A speed=7.67x    frame=10722 fps=184 q=-0.0 size=N/A time=00:07:27.19 bitrate=N/A speed=7.67x    frame=10821 fps=184 q=-0.0 size=N/A time=00:07:31.32 bitrate=N/A speed=7.67x    frame=10910 fps=184 q=-0.0 size=N/A time=00:07:35.03 bitrate=N/A speed=7.67x    frame=11007 fps=184 q=-0.0 size=N/A time=00:07:39.08 bitrate=N/A speed=7.67x    frame=11104 fps=184 q=-0.0 size=N/A time=00:07:43.12 bitrate=N/A speed=7.67x    frame=11198 fps=184 q=-0.0 size=N/A time=00:07:47.04 bitrate=N/A speed=7.67x    frame=11296 fps=184 q=-0.0 size=N/A time=00:07:51.13 bitrate=N/A speed=7.67x    frame=11391 fps=184 q=-0.0 size=N/A time=00:07:55.09 bitrate=N/A speed=7.67x    frame=11485 fps=184 q=-0.0 size=N/A time=00:07:59.02 bitrate=N/A speed=7.67x    frame=11578 fps=184 q=-0.0 size=N/A time=00:08:02.89 bitrate=N/A speed=7.67x    frame=11675 fps=184 q=-0.0 size=N/A time=00:08:06.94 bitrate=N/A speed=7.67x    frame=11768 fps=184 q=-0.0 size=N/A time=00:08:10.82 bitrate=N/A speed=7.67x    frame=11865 fps=184 q=-0.0 size=N/A time=00:08:14.86 bitrate=N/A speed=7.67x    frame=11963 fps=184 q=-0.0 size=N/A time=00:08:18.95 bitrate=N/A speed=7.67x    frame=12061 fps=184 q=-0.0 size=N/A time=00:08:23.04 bitrate=N/A speed=7.67x    frame=12157 fps=184 q=-0.0 size=N/A time=00:08:27.04 bitrate=N/A speed=7.67x    frame=12253 fps=184 q=-0.0 size=N/A time=00:08:31.05 bitrate=N/A speed=7.67x    frame=12347 fps=184 q=-0.0 size=N/A time=00:08:34.97 bitrate=N/A speed=7.67x    frame=12442 fps=184 q=-0.0 size=N/A time=00:08:38.93 bitrate=N/A speed=7.67x    frame=12534 fps=184 q=-0.0 size=N/A time=00:08:42.77 bitrate=N/A speed=7.67x    frame=12629 fps=184 q=-0.0 size=N/A time=00:08:46.73 bitrate=N/A speed=7.67x    frame=12721 fps=184 q=-0.0 size=N/A time=00:08:50.57 bitrate=N/A speed=7.67x    frame=12820 fps=184 q=-0.0 size=N/A time=00:08:54.70 bitrate=N/A speed=7.67x    frame=12918 fps=184 q=-0.0 size=N/A time=00:08:58.78 bitrate=N/A speed=7.67x    frame=13012 fps=184 q=-0.0 size=N/A time=00:09:02.70 bitrate=N/A speed=7.67x    frame=13108 fps=184 q=-0.0 size=N/A time=00:09:06.71 bitrate=N/A speed=7.67x    frame=13196 fps=184 q=-0.0 size=N/A time=00:09:10.38 bitrate=N/A speed=7.67x    frame=13296 fps=184 q=-0.0 size=N/A time=00:09:14.55 bitrate=N/A speed=7.67x    frame=13398 fps=184 q=-0.0 size=N/A time=00:09:18.80 bitrate=N/A speed=7.68x    frame=13494 fps=184 q=-0.0 size=N/A time=00:09:22.81 bitrate=N/A speed=7.68x    frame=13593 fps=184 q=-0.0 size=N/A time=00:09:26.94 bitrate=N/A speed=7.68x    frame=13688 fps=184 q=-0.0 size=N/A time=00:09:30.90 bitrate=N/A speed=7.68x    frame=13779 fps=184 q=-0.0 size=N/A time=00:09:34.69 bitrate=N/A speed=7.68x    frame=13880 fps=184 q=-0.0 size=N/A time=00:09:38.91 bitrate=N/A speed=7.68x    frame=13978 fps=184 q=-0.0 size=N/A time=00:09:42.99 bitrate=N/A speed=7.68x    frame=14076 fps=184 q=-0.0 size=N/A time=00:09:47.08 bitrate=N/A speed=7.68x    frame=14174 fps=184 q=-0.0 size=N/A time=00:09:51.17 bitrate=N/A speed=7.68x    frame=14267 fps=184 q=-0.0 size=N/A time=00:09:55.05 bitrate=N/A speed=7.68x    frame=14365 fps=184 q=-0.0 size=N/A time=00:09:59.14 bitrate=N/A speed=7.68x    frame=14463 fps=184 q=-0.0 size=N/A time=00:10:03.22 bitrate=N/A speed=7.69x    frame=14559 fps=184 q=-0.0 size=N/A time=00:10:07.23 bitrate=N/A speed=7.68x    frame=14652 fps=184 q=-0.0 size=N/A time=00:10:11.11 bitrate=N/A speed=7.68x    frame=14748 fps=184 q=-0.0 size=N/A time=00:10:15.11 bitrate=N/A speed=7.68x    frame=14840 fps=184 q=-0.0 size=N/A time=00:10:18.95 bitrate=N/A speed=7.68x    frame=14935 fps=184 q=-0.0 size=N/A time=00:10:22.91 bitrate=N/A speed=7.68x    frame=15030 fps=184 q=-0.0 size=N/A time=00:10:26.87 bitrate=N/A speed=7.68x    frame=15109 fps=184 q=-0.0 size=N/A time=00:10:30.17 bitrate=N/A speed=7.68x    frame=15217 fps=184 q=-0.0 size=N/A time=00:10:34.67 bitrate=N/A speed=7.68x    frame=15298 fps=184 q=-0.0 size=N/A time=00:10:38.05 bitrate=N/A speed=7.68x    frame=15399 fps=184 q=-0.0 size=N/A time=00:10:42.26 bitrate=N/A speed=7.68x    frame=15497 fps=184 q=-0.0 size=N/A time=00:10:46.35 bitrate=N/A speed=7.68x    frame=15586 fps=184 q=-0.0 size=N/A time=00:10:50.06 bitrate=N/A speed=7.68x    frame=15690 fps=184 q=-0.0 size=N/A time=00:10:54.40 bitrate=N/A speed=7.68x    frame=15784 fps=184 q=-0.0 size=N/A time=00:10:58.32 bitrate=N/A speed=7.68x    frame=15877 fps=184 q=-0.0 size=N/A time=00:11:02.20 bitrate=N/A speed=7.68x    frame=15975 fps=184 q=-0.0 size=N/A time=00:11:06.29 bitrate=N/A speed=7.68x    frame=16065 fps=184 q=-0.0 size=N/A time=00:11:10.04 bitrate=N/A speed=7.68x    frame=16158 fps=184 q=-0.0 size=N/A time=00:11:13.92 bitrate=N/A speed=7.67x    frame=16261 fps=184 q=-0.0 size=N/A time=00:11:18.21 bitrate=N/A speed=7.68x    frame=16358 fps=184 q=-0.0 size=N/A time=00:11:22.26 bitrate=N/A speed=7.68x    frame=16454 fps=184 q=-0.0 size=N/A time=00:11:26.26 bitrate=N/A speed=7.68x    frame=16547 fps=184 q=-0.0 size=N/A time=00:11:30.14 bitrate=N/A speed=7.68x    frame=16643 fps=184 q=-0.0 size=N/A time=00:11:34.15 bitrate=N/A speed=7.68x    frame=16741 fps=184 q=-0.0 size=N/A time=00:11:38.23 bitrate=N/A speed=7.68x    frame=16833 fps=184 q=-0.0 size=N/A time=00:11:42.07 bitrate=N/A speed=7.68x    frame=16931 fps=184 q=-0.0 size=N/A time=00:11:46.16 bitrate=N/A speed=7.68x    frame=17023 fps=184 q=-0.0 size=N/A time=00:11:50.00 bitrate=N/A speed=7.68x    frame=17124 fps=184 q=-0.0 size=N/A time=00:11:54.21 bitrate=N/A speed=7.68x    frame=17218 fps=184 q=-0.0 size=N/A time=00:11:58.13 bitrate=N/A speed=7.68x    frame=17311 fps=184 q=-0.0 size=N/A time=00:12:02.01 bitrate=N/A speed=7.68x    frame=17409 fps=184 q=-0.0 size=N/A time=00:12:06.10 bitrate=N/A speed=7.68x    frame=17504 fps=184 q=-0.0 size=N/A time=00:12:10.06 bitrate=N/A speed=7.68x    frame=17596 fps=184 q=-0.0 size=N/A time=00:12:13.89 bitrate=N/A speed=7.68x    frame=17686 fps=184 q=-0.0 size=N/A time=00:12:17.65 bitrate=N/A speed=7.68x    frame=17789 fps=184 q=-0.0 size=N/A time=00:12:21.94 bitrate=N/A speed=7.68x    frame=17887 fps=184 q=-0.0 size=N/A time=00:12:26.03 bitrate=N/A speed=7.68x    frame=17983 fps=184 q=-0.0 size=N/A time=00:12:30.04 bitrate=N/A speed=7.68x    frame=18074 fps=184 q=-0.0 size=N/A time=00:12:33.83 bitrate=N/A speed=7.68x    frame=18171 fps=184 q=-0.0 size=N/A time=00:12:37.88 bitrate=N/A speed=7.68x    frame=18263 fps=184 q=-0.0 size=N/A time=00:12:41.71 bitrate=N/A speed=7.68x    frame=18360 fps=184 q=-0.0 size=N/A time=00:12:45.76 bitrate=N/A speed=7.68x    frame=18459 fps=184 q=-0.0 size=N/A time=00:12:49.89 bitrate=N/A speed=7.68x    frame=18552 fps=184 q=-0.0 size=N/A time=00:12:53.77 bitrate=N/A speed=7.68x    frame=18648 fps=184 q=-0.0 size=N/A time=00:12:57.77 bitrate=N/A speed=7.68x    frame=18743 fps=184 q=-0.0 size=N/A time=00:13:01.73 bitrate=N/A speed=7.68x    frame=18840 fps=184 q=-0.0 size=N/A time=00:13:05.78 bitrate=N/A speed=7.69x    frame=18932 fps=184 q=-0.0 size=N/A time=00:13:09.62 bitrate=N/A speed=7.68x    frame=19029 fps=184 q=-0.0 size=N/A time=00:13:13.66 bitrate=N/A speed=7.68x    frame=19123 fps=184 q=-0.0 size=N/A time=00:13:17.58 bitrate=N/A speed=7.68x    frame=19216 fps=184 q=-0.0 size=N/A time=00:13:21.46 bitrate=N/A speed=7.68x    frame=19312 fps=184 q=-0.0 size=N/A time=00:13:25.47 bitrate=N/A speed=7.68x    frame=19411 fps=184 q=-0.0 size=N/A time=00:13:29.60 bitrate=N/A speed=7.69x    frame=19503 fps=184 q=-0.0 size=N/A time=00:13:33.43 bitrate=N/A speed=7.68x    frame=19600 fps=184 q=-0.0 size=N/A time=00:13:37.48 bitrate=N/A speed=7.69x    frame=19695 fps=184 q=-0.0 size=N/A time=00:13:41.44 bitrate=N/A speed=7.68x    frame=19790 fps=184 q=-0.0 size=N/A time=00:13:45.40 bitrate=N/A speed=7.69x    frame=19885 fps=184 q=-0.0 size=N/A time=00:13:49.37 bitrate=N/A speed=7.69x    frame=19979 fps=184 q=-0.0 size=N/A time=00:13:53.29 bitrate=N/A speed=7.68x    frame=20078 fps=184 q=-0.0 size=N/A time=00:13:57.41 bitrate=N/A speed=7.69x    frame=20168 fps=184 q=-0.0 size=N/A time=00:14:01.17 bitrate=N/A speed=7.68x    frame=20270 fps=184 q=-0.0 size=N/A time=00:14:05.42 bitrate=N/A speed=7.69x    frame=20367 fps=184 q=-0.0 size=N/A time=00:14:09.47 bitrate=N/A speed=7.69x    frame=20454 fps=184 q=-0.0 size=N/A time=00:14:13.10 bitrate=N/A speed=7.68x    frame=20557 fps=184 q=-0.0 size=N/A time=00:14:17.39 bitrate=N/A speed=7.69x    frame=20649 fps=184 q=-0.0 size=N/A time=00:14:21.23 bitrate=N/A speed=7.69x    frame=20744 fps=184 q=-0.0 size=N/A time=00:14:25.19 bitrate=N/A speed=7.69x    frame=20837 fps=184 q=-0.0 size=N/A time=00:14:29.07 bitrate=N/A speed=7.69x    frame=20936 fps=184 q=-0.0 size=N/A time=00:14:33.20 bitrate=N/A speed=7.69x    frame=21030 fps=184 q=-0.0 size=N/A time=00:14:37.12 bitrate=N/A speed=7.69x    frame=21130 fps=184 q=-0.0 size=N/A time=00:14:41.29 bitrate=N/A speed=7.69x    frame=21225 fps=184 q=-0.0 size=N/A time=00:14:45.25 bitrate=N/A speed=7.69x    frame=21322 fps=184 q=-0.0 size=N/A time=00:14:49.30 bitrate=N/A speed=7.69x    frame=21412 fps=184 q=-0.0 size=N/A time=00:14:53.05 bitrate=N/A speed=7.69x    frame=21510 fps=184 q=-0.0 size=N/A time=00:14:57.14 bitrate=N/A speed=7.69x    frame=21600 fps=184 q=-0.0 size=N/A time=00:15:00.90 bitrate=N/A speed=7.69x    frame=21702 fps=184 q=-0.0 size=N/A time=00:15:05.15 bitrate=N/A speed=7.69x    frame=21799 fps=184 q=-0.0 size=N/A time=00:15:09.19 bitrate=N/A speed=7.69x    frame=21893 fps=184 q=-0.0 size=N/A time=00:15:13.12 bitrate=N/A speed=7.69x    frame=21987 fps=184 q=-0.0 size=N/A time=00:15:17.04 bitrate=N/A speed=7.69x    frame=22079 fps=184 q=-0.0 size=N/A time=00:15:20.87 bitrate=N/A speed=7.69x    frame=22177 fps=184 q=-0.0 size=N/A time=00:15:24.96 bitrate=N/A speed=7.69x    frame=22272 fps=184 q=-0.0 size=N/A time=00:15:28.92 bitrate=N/A speed=7.69x    frame=22368 fps=184 q=-0.0 size=N/A time=00:15:32.93 bitrate=N/A speed=7.69x    frame=22461 fps=184 q=-0.0 size=N/A time=00:15:36.81 bitrate=N/A speed=7.69x    frame=22553 fps=184 q=-0.0 size=N/A time=00:15:40.64 bitrate=N/A speed=7.69x    frame=22648 fps=184 q=-0.0 size=N/A time=00:15:44.61 bitrate=N/A speed=7.69x    frame=22747 fps=184 q=-0.0 size=N/A time=00:15:48.73 bitrate=N/A speed=7.69x    frame=22843 fps=184 q=-0.0 size=N/A time=00:15:52.74 bitrate=N/A speed=7.69x    frame=22931 fps=184 q=-0.0 size=N/A time=00:15:56.41 bitrate=N/A speed=7.69x    frame=23032 fps=184 q=-0.0 size=N/A time=00:16:00.62 bitrate=N/A speed=7.69x    frame=23127 fps=184 q=-0.0 size=N/A time=00:16:04.58 bitrate=N/A speed=7.69x    frame=23224 fps=184 q=-0.0 size=N/A time=00:16:08.63 bitrate=N/A speed=7.69x    frame=23319 fps=184 q=-0.0 size=N/A time=00:16:12.59 bitrate=N/A speed=7.69x    frame=23414 fps=184 q=-0.0 size=N/A time=00:16:16.55 bitrate=N/A speed=7.69x    frame=23513 fps=184 q=-0.0 size=N/A time=00:16:20.68 bitrate=N/A speed=7.69x    frame=23606 fps=184 q=-0.0 size=N/A time=00:16:24.56 bitrate=N/A speed=7.69x    frame=23704 fps=184 q=-0.0 size=N/A time=00:16:28.65 bitrate=N/A speed=7.69x    frame=23799 fps=184 q=-0.0 size=N/A time=00:16:32.61 bitrate=N/A speed=7.69x    frame=23893 fps=184 q=-0.0 size=N/A time=00:16:36.53 bitrate=N/A speed=7.69x    frame=23987 fps=184 q=-0.0 size=N/A time=00:16:40.45 bitrate=N/A speed=7.69x    frame=24086 fps=184 q=-0.0 size=N/A time=00:16:44.58 bitrate=N/A speed=7.69x    frame=24181 fps=184 q=-0.0 size=N/A time=00:16:48.54 bitrate=N/A speed=7.69x    frame=24278 fps=184 q=-0.0 size=N/A time=00:16:52.59 bitrate=N/A speed=7.69x    frame=24369 fps=184 q=-0.0 size=N/A time=00:16:56.39 bitrate=N/A speed=7.69x    frame=24468 fps=184 q=-0.0 size=N/A time=00:17:00.51 bitrate=N/A speed=7.69x    frame=24563 fps=184 q=-0.0 size=N/A time=00:17:04.48 bitrate=N/A speed=7.69x    frame=24658 fps=184 q=-0.0 size=N/A time=00:17:08.44 bitrate=N/A speed=7.69x    frame=24754 fps=184 q=-0.0 size=N/A time=00:17:12.44 bitrate=N/A speed=7.69x    frame=24851 fps=184 q=-0.0 size=N/A time=00:17:16.49 bitrate=N/A speed=7.69x    frame=24942 fps=184 q=-0.0 size=N/A time=00:17:20.28 bitrate=N/A speed=7.69x    frame=25038 fps=184 q=-0.0 size=N/A time=00:17:24.29 bitrate=N/A speed=7.69x    frame=25136 fps=184 q=-0.0 size=N/A time=00:17:28.38 bitrate=N/A speed=7.69x    frame=25225 fps=184 q=-0.0 size=N/A time=00:17:32.09 bitrate=N/A speed=7.69x    frame=25328 fps=184 q=-0.0 size=N/A time=00:17:36.38 bitrate=N/A speed=7.69x    frame=25423 fps=184 q=-0.0 size=N/A time=00:17:40.35 bitrate=N/A speed=7.69x    frame=25515 fps=184 q=-0.0 size=N/A time=00:17:44.18 bitrate=N/A speed=7.69x    frame=25613 fps=184 q=-0.0 size=N/A time=00:17:48.27 bitrate=N/A speed=7.69x    frame=25706 fps=184 q=-0.0 size=N/A time=00:17:52.15 bitrate=N/A speed=7.69x    frame=25797 fps=184 q=-0.0 size=N/A time=00:17:55.94 bitrate=N/A speed=7.69x    frame=25895 fps=184 q=-0.0 size=N/A time=00:18:00.03 bitrate=N/A speed=7.69x    frame=25984 fps=184 q=-0.0 size=N/A time=00:18:03.74 bitrate=N/A speed=7.69x    frame=26075 fps=184 q=-0.0 size=N/A time=00:18:07.54 bitrate=N/A speed=7.69x    frame=26172 fps=184 q=-0.0 size=N/A time=00:18:11.59 bitrate=N/A speed=7.69x    frame=26268 fps=184 q=-0.0 size=N/A time=00:18:15.59 bitrate=N/A speed=7.69x    frame=26367 fps=184 q=-0.0 size=N/A time=00:18:19.72 bitrate=N/A speed=7.69x    frame=26464 fps=184 q=-0.0 size=N/A time=00:18:23.76 bitrate=N/A speed=7.69x    frame=26559 fps=184 q=-0.0 size=N/A time=00:18:27.73 bitrate=N/A speed=7.69x    frame=26655 fps=184 q=-0.0 size=N/A time=00:18:31.73 bitrate=N/A speed=7.69x    frame=26751 fps=184 q=-0.0 size=N/A time=00:18:35.73 bitrate=N/A speed=7.69x    frame=26838 fps=184 q=-0.0 size=N/A time=00:18:39.36 bitrate=N/A speed=7.69x    frame=26937 fps=184 q=-0.0 size=N/A time=00:18:43.49 bitrate=N/A speed=7.69x    frame=27029 fps=184 q=-0.0 size=N/A time=00:18:47.33 bitrate=N/A speed=7.69x    frame=27128 fps=184 q=-0.0 size=N/A time=00:18:51.46 bitrate=N/A speed=7.69x    frame=27220 fps=184 q=-0.0 size=N/A time=00:18:55.30 bitrate=N/A speed=7.69x    frame=27313 fps=184 q=-0.0 size=N/A time=00:18:59.17 bitrate=N/A speed=7.69x    frame=27402 fps=184 q=-0.0 size=N/A time=00:19:02.89 bitrate=N/A speed=7.69x    frame=27496 fps=184 q=-0.0 size=N/A time=00:19:06.81 bitrate=N/A speed=7.69x    frame=27593 fps=184 q=-0.0 size=N/A time=00:19:10.85 bitrate=N/A speed=7.69x    frame=27690 fps=184 q=-0.0 size=N/A time=00:19:14.90 bitrate=N/A speed=7.69x    frame=27785 fps=184 q=-0.0 size=N/A time=00:19:18.86 bitrate=N/A speed=7.69x    frame=27882 fps=184 q=-0.0 size=N/A time=00:19:22.91 bitrate=N/A speed=7.69x    frame=27975 fps=184 q=-0.0 size=N/A time=00:19:26.79 bitrate=N/A speed=7.69x    frame=28065 fps=184 q=-0.0 size=N/A time=00:19:30.54 bitrate=N/A speed=7.69x    frame=28166 fps=184 q=-0.0 size=N/A time=00:19:34.75 bitrate=N/A speed=7.69x    frame=28256 fps=184 q=-0.0 size=N/A time=00:19:38.51 bitrate=N/A speed=7.69x    frame=28355 fps=184 q=-0.0 size=N/A time=00:19:42.63 bitrate=N/A speed=7.69x    frame=28449 fps=184 q=-0.0 size=N/A time=00:19:46.56 bitrate=N/A speed=7.69x    frame=28541 fps=184 q=-0.0 size=N/A time=00:19:50.39 bitrate=N/A speed=7.69x    frame=28632 fps=184 q=-0.0 size=N/A time=00:19:54.19 bitrate=N/A speed=7.69x    frame=28729 fps=184 q=-0.0 size=N/A time=00:19:58.23 bitrate=N/A speed=7.69x    frame=28814 fps=184 q=-0.0 size=N/A time=00:20:01.78 bitrate=N/A speed=7.68x    frame=28921 fps=184 q=-0.0 size=N/A time=00:20:06.24 bitrate=N/A speed=7.69x    frame=29013 fps=184 q=-0.0 size=N/A time=00:20:10.08 bitrate=N/A speed=7.69x    frame=29107 fps=184 q=-0.0 size=N/A time=00:20:14.00 bitrate=N/A speed=7.69x    frame=29204 fps=184 q=-0.0 size=N/A time=00:20:18.05 bitrate=N/A speed=7.69x    frame=29290 fps=184 q=-0.0 size=N/A time=00:20:21.63 bitrate=N/A speed=7.68x    frame=29392 fps=184 q=-0.0 size=N/A time=00:20:25.89 bitrate=N/A speed=7.69x    frame=29476 fps=184 q=-0.0 size=N/A time=00:20:29.39 bitrate=N/A speed=7.68x    frame=29580 fps=184 q=-0.0 size=N/A time=00:20:33.73 bitrate=N/A speed=7.69x    frame=29675 fps=184 q=-0.0 size=N/A time=00:20:37.69 bitrate=N/A speed=7.69x    frame=29768 fps=184 q=-0.0 size=N/A time=00:20:41.57 bitrate=N/A speed=7.69x    frame=29865 fps=184 q=-0.0 size=N/A time=00:20:45.61 bitrate=N/A speed=7.69x    frame=29958 fps=184 q=-0.0 size=N/A time=00:20:49.49 bitrate=N/A speed=7.69x    frame=30051 fps=184 q=-0.0 size=N/A time=00:20:53.37 bitrate=N/A speed=7.68x    frame=30148 fps=184 q=-0.0 size=N/A time=00:20:57.42 bitrate=N/A speed=7.69x    frame=30239 fps=184 q=-0.0 size=N/A time=00:21:01.21 bitrate=N/A speed=7.68x    frame=30336 fps=184 q=-0.0 size=N/A time=00:21:05.26 bitrate=N/A speed=7.68x    frame=30426 fps=184 q=-0.0 size=N/A time=00:21:09.01 bitrate=N/A speed=7.68x    frame=30526 fps=184 q=-0.0 size=N/A time=00:21:13.18 bitrate=N/A speed=7.68x    frame=30621 fps=184 q=-0.0 size=N/A time=00:21:17.15 bitrate=N/A speed=7.68x    frame=30717 fps=184 q=-0.0 size=N/A time=00:21:21.15 bitrate=N/A speed=7.68x    frame=30810 fps=184 q=-0.0 size=N/A time=00:21:25.03 bitrate=N/A speed=7.68x    frame=30909 fps=184 q=-0.0 size=N/A time=00:21:29.16 bitrate=N/A speed=7.69x    frame=31001 fps=184 q=-0.0 size=N/A time=00:21:33.00 bitrate=N/A speed=7.68x    frame=31099 fps=184 q=-0.0 size=N/A time=00:21:37.08 bitrate=N/A speed=7.69x    frame=31193 fps=184 q=-0.0 size=N/A time=00:21:41.00 bitrate=N/A speed=7.69x    frame=31284 fps=184 q=-0.0 size=N/A time=00:21:44.80 bitrate=N/A speed=7.68x    frame=31378 fps=184 q=-0.0 size=N/A time=00:21:48.72 bitrate=N/A speed=7.68x    frame=31476 fps=184 q=-0.0 size=N/A time=00:21:52.81 bitrate=N/A speed=7.68x    frame=31567 fps=184 q=-0.0 size=N/A time=00:21:56.60 bitrate=N/A speed=7.68x    frame=31664 fps=184 q=-0.0 size=N/A time=00:22:00.65 bitrate=N/A speed=7.68x    frame=31756 fps=184 q=-0.0 size=N/A time=00:22:04.48 bitrate=N/A speed=7.68x    frame=31846 fps=184 q=-0.0 size=N/A time=00:22:08.24 bitrate=N/A speed=7.68x    frame=31948 fps=184 q=-0.0 size=N/A time=00:22:12.49 bitrate=N/A speed=7.68x    frame=32042 fps=184 q=-0.0 size=N/A time=00:22:16.41 bitrate=N/A speed=7.68x    frame=32128 fps=184 q=-0.0 size=N/A time=00:22:20.00 bitrate=N/A speed=7.68x    frame=32232 fps=184 q=-0.0 size=N/A time=00:22:24.34 bitrate=N/A speed=7.68x    frame=32328 fps=184 q=-0.0 size=N/A time=00:22:28.34 bitrate=N/A speed=7.68x    frame=32421 fps=184 q=-0.0 size=N/A time=00:22:32.22 bitrate=N/A speed=7.68x    frame=32515 fps=184 q=-0.0 size=N/A time=00:22:36.14 bitrate=N/A speed=7.68x    frame=32610 fps=184 q=-0.0 size=N/A time=00:22:40.10 bitrate=N/A speed=7.68x    frame=32705 fps=184 q=-0.0 size=N/A time=00:22:44.07 bitrate=N/A speed=7.68x    frame=32800 fps=184 q=-0.0 size=N/A time=00:22:48.03 bitrate=N/A speed=7.68x    frame=32892 fps=184 q=-0.0 size=N/A time=00:22:51.87 bitrate=N/A speed=7.68x    frame=32985 fps=184 q=-0.0 size=N/A time=00:22:55.74 bitrate=N/A speed=7.68x    frame=33079 fps=184 q=-0.0 size=N/A time=00:22:59.66 bitrate=N/A speed=7.68x    frame=33172 fps=184 q=-0.0 size=N/A time=00:23:03.54 bitrate=N/A speed=7.68x    frame=33268 fps=184 q=-0.0 size=N/A time=00:23:07.55 bitrate=N/A speed=7.68x    frame=33361 fps=184 q=-0.0 size=N/A time=00:23:11.43 bitrate=N/A speed=7.68x    frame=33450 fps=184 q=-0.0 size=N/A time=00:23:15.14 bitrate=N/A speed=7.68x    frame=33551 fps=184 q=-0.0 size=N/A time=00:23:19.35 bitrate=N/A speed=7.68x    frame=33643 fps=184 q=-0.0 size=N/A time=00:23:23.19 bitrate=N/A speed=7.68x    frame=33739 fps=184 q=-0.0 size=N/A time=00:23:27.19 bitrate=N/A speed=7.68x    frame=33831 fps=184 q=-0.0 size=N/A time=00:23:31.03 bitrate=N/A speed=7.68x    frame=33922 fps=184 q=-0.0 size=N/A time=00:23:34.83 bitrate=N/A speed=7.68x    frame=34025 fps=184 q=-0.0 size=N/A time=00:23:39.12 bitrate=N/A speed=7.68x    [Parsed_psnr_10 @ 00000214b6324080] PSNR y:44.210889 u:48.548119 v:48.590741 average:45.240917 min:36.735217 max:82.748542
[out#0/null @ 00000214aed47cc0] video:14630KiB audio:266472KiB subtitle:0KiB other streams:0KiB global headers:0KiB muxing overhead: unknown
frame=34047 fps=184 q=-0.0 Lsize=N/A time=00:23:40.04 bitrate=N/A speed=7.68x    
